<svg xmlns="http://www.w3.org/2000/svg" viewBox="0 0 100 100" preserveAspectRatio="xMidYMid" width="200" height="200" style="shape-rendering: auto; display: block;"><g data-idx="1"><g transform="matrix(1,0,0,1,80,50)" data-idx="2">
<g transform="matrix(1,0,0,1,0,0)" data-idx="3">
<circle cx="0" cy="0" r="6" fill="#ff727d" fill-opacity="0.00500101" data-idx="4" transform="matrix(1.0025005340576172,0,0,1.0025005340576172,0,0)">
  
  
</circle>
</g>
</g><g transform="matrix(1,0,0,1,71.21320343017578,71.21320343017578)" data-idx="7">
<g transform="matrix(0.7071067811865476,0.7071067811865476,-0.7071067811865476,0.7071067811865476,0,0)" data-idx="8">
<circle cx="0" cy="0" r="6" fill="#ff727d" fill-opacity="0.130001" data-idx="9" transform="matrix(1.0650005340576172,0,0,1.0650005340576172,0,0)">
  
  
</circle>
</g>
</g><g transform="matrix(1,0,0,1,50,80)" data-idx="12">
<g transform="matrix(6.123233995736766e-17,1,-1,6.123233995736766e-17,0,0)" data-idx="13">
<circle cx="0" cy="0" r="6" fill="#ff727d" fill-opacity="0.255001" data-idx="14" transform="matrix(1.1275005340576172,0,0,1.1275005340576172,0,0)">
  
  
</circle>
</g>
</g><g transform="matrix(1,0,0,1,28.78679656982422,71.21320343017578)" data-idx="17">
<g transform="matrix(-0.7071067811865475,0.7071067811865476,-0.7071067811865476,-0.7071067811865475,0,0)" data-idx="18">
<circle cx="0" cy="0" r="6" fill="#ff727d" fill-opacity="0.380001" data-idx="19" transform="matrix(1.1900005340576172,0,0,1.1900005340576172,0,0)">
  
  
</circle>
</g>
</g><g transform="matrix(1,0,0,1,20,50)" data-idx="22">
<g transform="matrix(-1,1.2246467991473532e-16,-1.2246467991473532e-16,-1,0,0)" data-idx="23">
<circle cx="0" cy="0" r="6" fill="#ff727d" fill-opacity="0.505001" data-idx="24" transform="matrix(1.2525005340576172,0,0,1.2525005340576172,0,0)">
  
  
</circle>
</g>
</g><g transform="matrix(1,0,0,1,28.78679656982422,28.78679656982422)" data-idx="27">
<g transform="matrix(-0.7071067811865477,-0.7071067811865475,0.7071067811865475,-0.7071067811865477,0,0)" data-idx="28">
<circle cx="0" cy="0" r="6" fill="#ff727d" fill-opacity="0.630001" data-idx="29" transform="matrix(1.3150005340576172,0,0,1.3150005340576172,0,0)">
  
  
</circle>
</g>
</g><g transform="matrix(1,0,0,1,50,20)" data-idx="32">
<g transform="matrix(-1.8369701987210297e-16,-1,1,-1.8369701987210297e-16,0,0)" data-idx="33">
<circle cx="0" cy="0" r="6" fill="#ff727d" fill-opacity="0.755001" data-idx="34" transform="matrix(1.3775005340576172,0,0,1.3775005340576172,0,0)">
  
  
</circle>
</g>
</g><g transform="matrix(1,0,0,1,71.21320343017578,28.78679656982422)" data-idx="37">
<g transform="matrix(0.7071067811865474,-0.7071067811865477,0.7071067811865477,0.7071067811865474,0,0)" data-idx="38">
<circle cx="0" cy="0" r="6" fill="#ff727d" fill-opacity="0.880001" data-idx="39" transform="matrix(1.4400005340576172,0,0,1.4400005340576172,0,0)">
  
  
</circle>
</g>
</g><g data-idx="42"></g></g></svg>