<svg width="9" height="17" viewBox="0 0 9 17" fill="none" xmlns="http://www.w3.org/2000/svg">
<path d="M8.79964 0.189291C8.92809 0.313676 9 0.480662 9 0.654548C9 0.828434 8.92809 0.99542 8.79964 1.1198L1.62411 8.08333L8.79964 15.0455C8.92809 15.1699 9 15.3368 9 15.5107C9 15.6846 8.92809 15.8516 8.79964 15.976C8.73722 16.0366 8.66257 16.0848 8.58013 16.1178C8.49768 16.1507 8.4091 16.1676 8.31961 16.1676C8.23012 16.1676 8.14153 16.1507 8.05909 16.1178C7.97664 16.0848 7.902 16.0366 7.83957 15.976L0.209026 8.56948C0.0750072 8.43942 7.22632e-07 8.26497 7.06753e-07 8.08333C6.90874e-07 7.9017 0.0750072 7.72725 0.209026 7.59718L7.83957 0.190684C7.902 0.130029 7.97664 0.0818195 8.05908 0.0489013C8.14153 0.0159831 8.23011 -0.000976495 8.3196 -0.000976503C8.40909 -0.000976511 8.49768 0.0159831 8.58013 0.0489012C8.66257 0.0818194 8.73721 0.130029 8.79964 0.190684L8.79964 0.189291Z" fill="black"/>
</svg>
