<svg width="9" height="17" viewBox="0 0 9 17" fill="none" xmlns="http://www.w3.org/2000/svg">
<path d="M0.200358 15.9777C0.071911 15.8533 0 15.6863 0 15.5124C0 15.3386 0.071911 15.1716 0.200358 15.0472L7.37589 8.08366L0.200358 1.12152C0.071911 0.99714 0 0.830154 0 0.656269C0 0.482383 0.071911 0.315396 0.200358 0.191011C0.262786 0.130356 0.337427 0.0821457 0.419875 0.0492287C0.502322 0.0163097 0.590905 -0.000648499 0.680395 -0.000648499C0.769885 -0.000648499 0.858469 0.0163097 0.940916 0.0492287C1.02336 0.0821457 1.098 0.130356 1.16043 0.191011L8.79097 7.59751C8.92499 7.72758 9 7.90203 9 8.08366C9 8.26529 8.92499 8.43974 8.79097 8.56981L1.16043 15.9763C1.098 16.037 1.02336 16.0852 0.940916 16.1181C0.858469 16.151 0.769885 16.168 0.680395 16.168C0.590905 16.168 0.502322 16.151 0.419875 16.1181C0.337427 16.0852 0.262786 16.037 0.200358 15.9763V15.9777Z" fill="black"/>
</svg>
