<svg width="20" height="12" viewBox="0 0 20 12" fill="none" xmlns="http://www.w3.org/2000/svg">
<path d="M1.24951 10.7221C1.50736 10.9799 1.85703 11.1247 2.22163 11.1247C2.58623 11.1247 2.9359 10.9799 3.19376 10.7221L10 3.91588L16.8063 10.7221C17.0656 10.9726 17.4129 11.1112 17.7734 11.1081C18.134 11.1049 18.4788 10.9603 18.7338 10.7054C18.9887 10.4504 19.1333 10.1056 19.1364 9.74506C19.1396 9.38454 19.001 9.03721 18.7505 8.77788L10.9721 0.999505C10.7143 0.741732 10.3646 0.596924 10 0.596924C9.6354 0.596924 9.28573 0.741732 9.02788 0.999505L1.24951 8.77788C0.991733 9.03573 0.846924 9.38541 0.846924 9.75001C0.846924 10.1146 0.991733 10.4643 1.24951 10.7221Z" fill="black"/>
</svg>
