<svg width="11" height="11" viewBox="0 0 11 11" fill="none" xmlns="http://www.w3.org/2000/svg">
<path d="M9.9742 9.12535L9.97419 9.12534L6.3483 5.5L9.97419 1.87466L9.9742 1.87465C10.0868 1.76208 10.15 1.60942 10.15 1.45023C10.15 1.29104 10.0868 1.13837 9.9742 1.0258C9.86163 0.913238 9.70896 0.85 9.54977 0.85C9.39058 0.85 9.23792 0.913238 9.12535 1.0258L9.12534 1.02581L5.5 4.6517L1.87466 1.02581L1.87465 1.0258C1.76208 0.913238 1.60941 0.85 1.45023 0.85C1.29104 0.85 1.13837 0.913238 1.0258 1.0258C0.913238 1.13837 0.85 1.29104 0.85 1.45023C0.85 1.60941 0.913238 1.76208 1.0258 1.87465L1.02581 1.87466L4.6517 5.5L1.02581 9.12534L1.0258 9.12535C0.913238 9.23792 0.85 9.39058 0.85 9.54977C0.85 9.70896 0.913238 9.86163 1.0258 9.9742C1.13837 10.0868 1.29104 10.15 1.45023 10.15C1.60942 10.15 1.76208 10.0868 1.87465 9.9742L1.87466 9.97419L5.5 6.3483L9.12534 9.97419L9.12535 9.9742C9.18109 10.0299 9.24726 10.0741 9.32008 10.1043C9.3929 10.1345 9.47095 10.15 9.54977 10.15C9.6286 10.15 9.70665 10.1345 9.77947 10.1043C9.85229 10.0741 9.91846 10.0299 9.9742 9.9742C10.0299 9.91846 10.0741 9.85229 10.1043 9.77947C10.1345 9.70665 10.15 9.6286 10.15 9.54977C10.15 9.47095 10.1345 9.3929 10.1043 9.32008C10.0741 9.24726 10.0299 9.18109 9.9742 9.12535Z" fill="black" stroke="black" stroke-width="0.3"/>
</svg>
