<svg width="7" height="7" viewBox="0 0 7 7" fill="none" xmlns="http://www.w3.org/2000/svg">
<path d="M6.83695 0.649262C6.86888 0.617324 6.89422 0.579408 6.9115 0.537679C6.92879 0.49595 6.93768 0.451226 6.93768 0.406058C6.93768 0.360891 6.92879 0.316167 6.9115 0.274438C6.89422 0.232709 6.86888 0.194793 6.83695 0.162855C6.80501 0.130918 6.76709 0.105583 6.72536 0.0882988C6.68363 0.0710139 6.63891 0.0621171 6.59374 0.0621171C6.54858 0.0621171 6.50385 0.0710139 6.46212 0.0882988C6.42039 0.105583 6.38248 0.130918 6.35054 0.162855L3.49999 3.01383L0.649446 0.162855C0.584944 0.0983539 0.497462 0.0621171 0.406243 0.0621171C0.315024 0.0621171 0.227541 0.0983539 0.16304 0.162855C0.0985382 0.227357 0.0623016 0.31484 0.0623016 0.406058C0.0623016 0.497277 0.0985382 0.58476 0.16304 0.649262L3.01402 3.49981L0.16304 6.35036C0.0985382 6.41486 0.0623016 6.50234 0.0623016 6.59356C0.0623016 6.68478 0.0985382 6.77226 0.16304 6.83676C0.227541 6.90126 0.315024 6.9375 0.406243 6.9375C0.497462 6.9375 0.584944 6.90126 0.649446 6.83676L3.49999 3.98579L6.35054 6.83676C6.41504 6.90126 6.50252 6.9375 6.59374 6.9375C6.68496 6.9375 6.77244 6.90126 6.83695 6.83676C6.90145 6.77226 6.93768 6.68478 6.93768 6.59356C6.93768 6.50234 6.90145 6.41486 6.83695 6.35036L3.98597 3.49981L6.83695 0.649262Z" fill="#212121"/>
</svg>
