<svg width="23" height="19" viewBox="0 0 23 19" fill="none" xmlns="http://www.w3.org/2000/svg">
<path d="M5.42967 17.0963V5.42967H7V0H17.5V5.42967H19.25C20.0604 5.42967 20.7488 5.71355 21.315 6.28133C21.8828 6.84755 22.1667 7.53589 22.1667 8.34633V17.0963H5.42967ZM2.268 18.263C2.90422 18.263 3.44089 18.0441 3.878 17.6062C4.31356 17.1675 4.53133 16.6308 4.53133 15.9962V6.52867C4.53133 5.89478 4.31239 5.3585 3.8745 4.91983C3.43661 4.48117 2.89956 4.26222 2.26333 4.263C1.62789 4.263 1.092 4.48194 0.655667 4.91983C0.218556 5.3585 0 5.89517 0 6.52983V15.9973C0 16.6312 0.219333 17.1675 0.658 17.6062C1.09667 18.0441 1.63333 18.263 2.268 18.263ZM8.16667 5.42967H16.3333V1.16667H8.16667V5.42967ZM15.0768 10.6797C15.4074 10.6797 15.6847 10.5677 15.9087 10.3437C16.1327 10.1197 16.2443 9.84278 16.2435 9.513C16.2435 9.18244 16.1319 8.90555 15.9087 8.68233C15.6854 8.45911 15.4082 8.34711 15.0768 8.34633C14.7463 8.34633 14.4694 8.45833 14.2462 8.68233C14.0229 8.90633 13.9109 9.18322 13.9102 9.513C13.9102 9.84355 14.0222 10.1208 14.2462 10.3448C14.4702 10.5688 14.7471 10.6804 15.0768 10.6797ZM18.5768 10.6797C18.9074 10.6797 19.1847 10.5677 19.4087 10.3437C19.6327 10.1197 19.7443 9.84278 19.7435 9.513C19.7435 9.18244 19.6319 8.90555 19.4087 8.68233C19.1854 8.45911 18.9082 8.34711 18.5768 8.34633C18.2463 8.34633 17.9694 8.45833 17.7462 8.68233C17.5229 8.90633 17.4109 9.18322 17.4102 9.513C17.4102 9.84355 17.5222 10.1208 17.7462 10.3448C17.9702 10.5688 18.2471 10.6804 18.5768 10.6797ZM15.0768 14.1797C15.4074 14.1797 15.6847 14.0677 15.9087 13.8437C16.1327 13.6197 16.2443 13.3428 16.2435 13.013C16.2435 12.6824 16.1319 12.4052 15.9087 12.1812C15.6854 11.9572 15.4082 11.8456 15.0768 11.8463C14.7463 11.8463 14.4694 11.9579 14.2462 12.1812C14.0229 12.4044 13.9109 12.6817 13.9102 13.013C13.9102 13.3436 14.0222 13.6204 14.2462 13.8437C14.4702 14.0669 14.7471 14.1789 15.0768 14.1797ZM18.5768 14.1797C18.9074 14.1797 19.1847 14.0677 19.4087 13.8437C19.6327 13.6197 19.7443 13.3428 19.7435 13.013C19.7435 12.6824 19.6319 12.4052 19.4087 12.1812C19.1854 11.9572 18.9082 11.8456 18.5768 11.8463C18.2463 11.8463 17.9694 11.9579 17.7462 12.1812C17.5229 12.4044 17.4109 12.6817 17.4102 13.013C17.4102 13.3436 17.5222 13.6204 17.7462 13.8437C17.9702 14.0669 18.2471 14.1789 18.5768 14.1797ZM8.07683 14.1797H12.7435V8.34633H8.07683V14.1797Z" fill="#ED3237"/>
</svg>
