<svg width="19" height="19" viewBox="0 0 19 19" fill="none" xmlns="http://www.w3.org/2000/svg">
<path d="M0.5 19H3.58333V15.9167H0.5V19ZM5.63889 19H8.72222V15.9167H5.63889V19ZM10.7778 19H13.8611V15.9167H10.7778V19ZM15.9167 19H19V15.9167H15.9167V19ZM0.5 3.58333H3.58333V0.5H0.5V3.58333ZM0.5 8.72222H3.58333V5.63889H0.5V8.72222ZM0.5 13.8611H3.58333V10.7778H0.5V13.8611ZM5.63889 3.58333H8.72222V0.5H5.63889V3.58333ZM5.63889 8.72222H8.72222V5.63889H5.63889V8.72222ZM5.63889 13.8611H8.72222V10.7778H5.63889V13.8611ZM10.7778 3.58333H13.8611V0.5H10.7778V3.58333ZM10.7778 8.72222H13.8611V5.63889H10.7778V8.72222ZM10.7778 13.8611H13.8611V10.7778H10.7778V13.8611ZM15.9167 3.58333H19V0.5H15.9167V3.58333ZM15.9167 8.72222H19V5.63889H15.9167V8.72222ZM15.9167 13.8611H19V10.7778H15.9167V13.8611Z" fill="black"/>
</svg>
