<svg width="12" height="14" viewBox="0 0 12 14" fill="none" xmlns="http://www.w3.org/2000/svg">
<path d="M6.00016 2.33398L11.3335 2.33398M0.66683 11.6673L2.66683 11.6673M0.66683 2.33398L3.3335 2.33398M5.3335 11.6673L11.3335 11.6673M9.3335 7.00065L11.3335 7.00065M0.66683 7.00065L6.66683 7.00065" stroke="black" stroke-linecap="round"/>
<path d="M3.33333 2.33333C3.33333 3.06971 3.93029 3.66667 4.66667 3.66667C5.40305 3.66667 6 3.06971 6 2.33333C6 1.59695 5.40305 1 4.66667 1C3.93029 1 3.33333 1.59695 3.33333 2.33333Z" stroke="black" stroke-linecap="round"/>
<path d="M6.66683 6.99935C6.66683 7.73573 7.26378 8.33268 8.00016 8.33268C8.73654 8.33268 9.3335 7.73573 9.3335 6.99935C9.3335 6.26297 8.73654 5.66602 8.00016 5.66602C7.26378 5.66602 6.66683 6.26297 6.66683 6.99935Z" stroke="black" stroke-linecap="round"/>
<path d="M2.66683 11.6673C2.66683 12.4037 3.26378 13.0007 4.00016 13.0007C4.73654 13.0007 5.3335 12.4037 5.3335 11.6673C5.3335 10.9309 4.73654 10.334 4.00016 10.334C3.26378 10.334 2.66683 10.9309 2.66683 11.6673Z" stroke="black" stroke-linecap="round"/>
</svg>
