<svg width="30" height="30" viewBox="0 0 30 30" fill="none" xmlns="http://www.w3.org/2000/svg">
<path d="M25.3125 3.28125H10.3125C9.93954 3.28125 9.58185 3.42941 9.31813 3.69313C9.05441 3.95685 8.90625 4.31454 8.90625 4.6875V8.90625H4.6875C4.31454 8.90625 3.95685 9.05441 3.69313 9.31813C3.42941 9.58185 3.28125 9.93954 3.28125 10.3125V25.3125C3.28125 25.6855 3.42941 26.0431 3.69313 26.3069C3.95685 26.5706 4.31454 26.7188 4.6875 26.7188H19.6875C20.0605 26.7188 20.4181 26.5706 20.6819 26.3069C20.9456 26.0431 21.0938 25.6855 21.0938 25.3125V21.0938H25.3125C25.6855 21.0938 26.0431 20.9456 26.3069 20.6819C26.5706 20.4181 26.7188 20.0605 26.7188 19.6875V4.6875C26.7188 4.31454 26.5706 3.95685 26.3069 3.69313C26.0431 3.42941 25.6855 3.28125 25.3125 3.28125ZM18.2812 23.9062H6.09375V11.7188H18.2812V23.9062ZM23.9062 18.2812H21.0938V10.3125C21.0938 9.93954 20.9456 9.58185 20.6819 9.31813C20.4181 9.05441 20.0605 8.90625 19.6875 8.90625H11.7188V6.09375H23.9062V18.2812Z" fill="black"/>
</svg>
