<svg width="20" height="26" viewBox="0 0 20 26" fill="none" xmlns="http://www.w3.org/2000/svg">
<path d="M10 0.75C7.44823 0.75301 5.00182 1.76804 3.19743 3.57242C1.39305 5.37681 0.378021 7.82322 0.37501 10.375C0.371954 12.4603 1.05312 14.4891 2.31401 16.15C2.31401 16.15 2.57651 16.4956 2.61939 16.5455L10 25.25L17.3841 16.5411C17.4226 16.4948 17.686 16.15 17.686 16.15L17.6869 16.1474C18.9471 14.4872 19.628 12.4594 19.625 10.375C19.622 7.82322 18.607 5.37681 16.8026 3.57242C14.9982 1.76804 12.5518 0.75301 10 0.75ZM10 13.875C9.30777 13.875 8.63109 13.6697 8.05551 13.2851C7.47994 12.9006 7.03134 12.3539 6.76643 11.7144C6.50152 11.0749 6.43221 10.3711 6.56726 9.69218C6.70231 9.01325 7.03565 8.38961 7.52514 7.90013C8.01462 7.41064 8.63826 7.0773 9.31719 6.94225C9.99613 6.8072 10.6999 6.87651 11.3394 7.14142C11.9789 7.40633 12.5256 7.85493 12.9102 8.4305C13.2947 9.00608 13.5 9.68277 13.5 10.375C13.4989 11.3029 13.1297 12.1925 12.4736 12.8486C11.8175 13.5047 10.9279 13.8738 10 13.875Z" fill="#ED3237"/>
</svg>
