<svg width="20" height="20" viewBox="0 0 20 20" fill="none" xmlns="http://www.w3.org/2000/svg">
<path fill-rule="evenodd" clip-rule="evenodd" d="M14.7126 20.0013C13.2702 19.9482 9.18226 19.3832 4.90103 15.103C0.620792 10.8217 0.0568381 6.73483 0.00274664 5.29139C-0.0773888 3.09167 1.60746 0.955059 3.55375 0.120648C3.78812 0.0194439 4.04478 -0.0190877 4.29854 0.00883453C4.5523 0.0367567 4.79444 0.130173 5.0012 0.279917C6.60391 1.44789 7.70977 3.21488 8.65938 4.60423C8.86832 4.90947 8.95765 5.28092 8.91036 5.64779C8.86307 6.01466 8.68246 6.35131 8.40295 6.59359L6.44864 8.04504C6.35423 8.11322 6.28776 8.21336 6.2616 8.32684C6.23544 8.44033 6.25136 8.55945 6.3064 8.66209C6.74915 9.46645 7.53648 10.6645 8.43801 11.566C9.34053 12.4675 10.5947 13.3069 11.4551 13.7998C11.563 13.8603 11.69 13.8773 11.81 13.8471C11.9299 13.8169 12.0338 13.7419 12.1002 13.6375L13.3723 11.7012C13.6062 11.3905 13.9513 11.1824 14.3352 11.1204C14.7191 11.0584 15.112 11.1474 15.4318 11.3687C16.8412 12.3443 18.486 13.4311 19.69 14.9728C19.8519 15.181 19.9549 15.4289 19.9882 15.6906C20.0215 15.9523 19.9839 16.2181 19.8793 16.4603C19.0409 18.4166 16.9193 20.0824 14.7126 20.0013Z" fill="#ED3237"/>
</svg>
