<svg width="25" height="25" viewBox="0 0 25 25" fill="none" xmlns="http://www.w3.org/2000/svg">
<path d="M22.3167 24.125L14.1792 15.9875C13.5333 16.5042 12.7906 16.9132 11.951 17.2146C11.1115 17.516 10.2181 17.6667 9.27083 17.6667C6.92431 17.6667 4.93858 16.8538 3.31367 15.228C1.68875 13.6022 0.875861 11.6165 0.875 9.27083C0.875 6.92431 1.68789 4.93858 3.31367 3.31367C4.93944 1.68875 6.92517 0.875861 9.27083 0.875C11.6174 0.875 13.6035 1.68789 15.2293 3.31367C16.8551 4.93944 17.6675 6.92517 17.6667 9.27083C17.6667 10.2181 17.516 11.1115 17.2146 11.951C16.9132 12.7906 16.5042 13.5333 15.9875 14.1792L24.125 22.3167L22.3167 24.125ZM9.27083 15.0833C10.8854 15.0833 12.258 14.5184 13.3887 13.3887C14.5193 12.2589 15.0842 10.8863 15.0833 9.27083C15.0833 7.65625 14.5184 6.28407 13.3887 5.15429C12.2589 4.02451 10.8863 3.45919 9.27083 3.45833C7.65625 3.45833 6.28407 4.02365 5.15429 5.15429C4.02451 6.28493 3.45919 7.65711 3.45833 9.27083C3.45833 10.8854 4.02365 12.258 5.15429 13.3887C6.28493 14.5193 7.65711 15.0842 9.27083 15.0833Z" fill="black"/>
</svg>
